<svg id="Layer_1" data-name="Layer 1" xmlns="http://www.w3.org/2000/svg" viewBox="0 0 15 15"><defs><style>.cls-1{fill:#fff;}</style></defs><title>icon</title><path class="cls-1" d="M6.42,2.3a6.35,6.35,0,1,0,6.36,6.35A6.36,6.36,0,0,0,6.42,2.3Zm0,11.87A5.53,5.53,0,1,1,12,8.65,5.53,5.53,0,0,1,6.42,14.17Z"/><path class="cls-1" d="M6.42,4.09A4.56,4.56,0,1,0,11,8.65,4.56,4.56,0,0,0,6.42,4.09Zm0,8.29a3.73,3.73,0,1,1,3.73-3.73A3.73,3.73,0,0,1,6.42,12.38Z"/><path class="cls-1" d="M14.93,7.21A6.36,6.36,0,0,1,11,13.08a6.26,6.26,0,0,0,1.18-1.69A5.52,5.52,0,0,0,6,2.35a6.25,6.25,0,0,0-2,.48,6.35,6.35,0,0,1,11,4.38Z"/><path class="cls-1" d="M13.28,8.7V8.42A6.32,6.32,0,0,0,9,2.42h.1A4.55,4.55,0,0,1,13.28,8.7Z"/><path class="cls-1" d="M6.48,5.71a1.38,1.38,0,0,0-.56.16,1,1,0,0,0-.45.7c0,.12,0,.14,0,2V10.5l-.07-.06a.54.54,0,0,0-.61-.08.48.48,0,0,0-.29.52.51.51,0,0,0,.42.41A.8.8,0,0,0,5.63,11a1.08,1.08,0,0,0,.25-.54l0-.11s0-.86,0-1.92c0-2.12,0-2,.08-2.16A.67.67,0,0,1,6.67,6a.75.75,0,0,1,.5.17.67.67,0,0,1,.2.57.72.72,0,0,1,0,.34c-.05.19-.1.29-.17.32a.34.34,0,0,1-.26,0,.38.38,0,0,0-.26,0,.25.25,0,0,0-.15.38c.08.13.2.15.47.07a.38.38,0,0,1,.36.11.33.33,0,0,1,.12.14,1.74,1.74,0,0,1,.12.76,1.36,1.36,0,0,1-.09.5.54.54,0,0,1-.63.4,4.19,4.19,0,0,1-.57-.17l-.15-.06s-.06.07-.06.11c0,.22.57.44,1,.39a1,1,0,0,0,.43-.11A.91.91,0,0,0,8,9.46a1.33,1.33,0,0,0,.16-.69A1.18,1.18,0,0,0,7.92,8a2.78,2.78,0,0,0-.4-.35l-.09-.08.08-.07a1.15,1.15,0,0,0,.3-.32.89.89,0,0,0,.05-.94,1,1,0,0,0-.47-.4A1.76,1.76,0,0,0,6.48,5.71Z"/><path class="cls-1" d="M6.48,5.71a1.38,1.38,0,0,0-.56.16,1,1,0,0,0-.45.7c0,.12,0,.14,0,2V10.5l-.07-.06a.54.54,0,0,0-.61-.08.48.48,0,0,0-.29.52.51.51,0,0,0,.42.41A.8.8,0,0,0,5.63,11a1.08,1.08,0,0,0,.25-.54l0-.11s0-.86,0-1.92c0-2.12,0-2,.08-2.16A.67.67,0,0,1,6.67,6a.75.75,0,0,1,.5.17.67.67,0,0,1,.2.57.72.72,0,0,1,0,.34c-.05.19-.1.29-.17.32a.34.34,0,0,1-.26,0,.38.38,0,0,0-.26,0,.25.25,0,0,0-.15.38c.08.13.2.15.47.07a.38.38,0,0,1,.36.11.33.33,0,0,1,.12.14,1.74,1.74,0,0,1,.12.76,1.36,1.36,0,0,1-.09.5.54.54,0,0,1-.63.4,4.19,4.19,0,0,1-.57-.17l-.15-.06s-.06.07-.06.11c0,.22.57.44,1,.39a1,1,0,0,0,.43-.11A.91.91,0,0,0,8,9.46a1.33,1.33,0,0,0,.16-.69A1.18,1.18,0,0,0,7.92,8a2.78,2.78,0,0,0-.4-.35l-.09-.08.08-.07a1.15,1.15,0,0,0,.3-.32.89.89,0,0,0,.05-.94,1,1,0,0,0-.47-.4A1.76,1.76,0,0,0,6.48,5.71Z"/></svg>