<svg id="Layer_1" data-name="Layer 1" xmlns="http://www.w3.org/2000/svg" viewBox="0 0 15 15"><defs><style>.cls-1{fill:none;stroke:#fff;stroke-miterlimit:10;stroke-width:0.5px;}.cls-2{fill:#fff;}</style></defs><title>icon</title><path class="cls-1" d="M3,14H13.74a.17.17,0,0,0,.18-.19l-.33-1.41a.17.17,0,0,0-.18-.13h-10a.19.19,0,0,0-.19.13l-.32,1.41A.17.17,0,0,0,3,14Z"/><rect class="cls-1" x="3.88" y="5" width="2.08" height="7.27"/><rect class="cls-1" x="7.35" y="5" width="2.08" height="7.27"/><rect class="cls-1" x="10.81" y="5" width="2.08" height="7.27"/><path class="cls-1" d="M9.88,2.58h3.56a.44.44,0,0,1,.44.44V4.21a.44.44,0,0,1-.44.44H9.88a0,0,0,0,1,0,0V2.58A0,0,0,0,1,9.88,2.58Z"/><path class="cls-1" d="M3.15,2.58h4.1a0,0,0,0,1,0,0V4.65a0,0,0,0,1,0,0H3.15a.4.4,0,0,1-.4-.4V3A.4.4,0,0,1,3.15,2.58Z"/><polygon class="cls-1" points="4.58 2.58 8.04 0.5 12.19 2.58 4.58 2.58"/><path class="cls-2" d="M8.44,3a.38.38,0,0,0-.17,0,.3.3,0,0,0-.14.21s0,0,0,.62v.58l0,0a.19.19,0,0,0-.18,0,.15.15,0,0,0,0,.29.26.26,0,0,0,.22-.09.3.3,0,0,0,.08-.16v0s0-.27,0-.59c0-.64,0-.61,0-.66A.21.21,0,0,1,8.5,3a.18.18,0,0,1,.15.05.22.22,0,0,1,.06.17.37.37,0,0,1,0,.11.17.17,0,0,1-.06.09H8.56a.11.11,0,0,0-.08,0,.07.07,0,0,0,0,.11s.06,0,.14,0a.12.12,0,0,1,.11,0,.08.08,0,0,1,0,0,.56.56,0,0,1,0,.24.68.68,0,0,1,0,.15.17.17,0,0,1-.19.12l-.18,0,0,0s0,0,0,0,.17.13.31.12a.28.28,0,0,0,.13,0,.32.32,0,0,0,.15-.13.44.44,0,0,0,0-.21.38.38,0,0,0-.06-.24l-.12-.11,0,0,0,0a.29.29,0,0,0,.09-.1.26.26,0,0,0,0-.28A.32.32,0,0,0,8.71,3,.58.58,0,0,0,8.44,3Z"/></svg>