<svg id="Layer_1" data-name="Layer 1" xmlns="http://www.w3.org/2000/svg" viewBox="0 0 15 15"><defs><style>.cls-1,.cls-2{fill:#fff;}.cls-2{fill-rule:evenodd;}.cls-3{fill:none;}.cls-3,.cls-4{stroke:#fff;stroke-miterlimit:10;stroke-width:0.25px;}</style></defs><title>icon</title><path class="cls-1" d="M3,3.37a.44.44,0,0,1,.31-.53h0L5,2.38a.44.44,0,0,1,.54.31v0a14.87,14.87,0,0,1,1.79-.1,15.86,15.86,0,0,1,1.85.11.44.44,0,0,1,.51-.36h0l1.69.46a.44.44,0,0,1,.31.53.3.3,0,0,1,0,.1,2.13,2.13,0,0,1,.32.26,5,5,0,0,1,1,1.56,12.72,12.72,0,0,1,.71,2.16A11.48,11.48,0,0,1,14,9.73a4.67,4.67,0,0,1-.29,1.93,1.24,1.24,0,0,1-1.27.73,2.28,2.28,0,0,1-1.32-.68,8.81,8.81,0,0,1-.65-.7l-.32-.38A3.51,3.51,0,0,0,7.33,9.3,3.51,3.51,0,0,0,4.5,10.63L4.18,11a8.81,8.81,0,0,1-.65.7,2.17,2.17,0,0,1-1.32.68,1.24,1.24,0,0,1-1.27-.73A4.52,4.52,0,0,1,.66,9.73,12.23,12.23,0,0,1,1,7.45a13.68,13.68,0,0,1,.71-2.16,5.21,5.21,0,0,1,1-1.56A1.82,1.82,0,0,1,3,3.44l0-.07Zm1.79.36a3.35,3.35,0,0,0-1.52.62,4.54,4.54,0,0,0-.78,1.29,12.74,12.74,0,0,0-.65,2,10.63,10.63,0,0,0-.3,2.1,3.93,3.93,0,0,0,.21,1.56.38.38,0,0,0,.38.21,1.43,1.43,0,0,0,.81-.44,7.89,7.89,0,0,0,.54-.59l.38-.44A4.39,4.39,0,0,1,7.33,8.42a4.35,4.35,0,0,1,3.47,1.63c.14.16.27.3.38.44s.36.41.54.59a1.42,1.42,0,0,0,.82.44.37.37,0,0,0,.37-.21,3.73,3.73,0,0,0,.21-1.56,10.63,10.63,0,0,0-.3-2.1,11,11,0,0,0-.65-2,4.19,4.19,0,0,0-.78-1.29,3.3,3.3,0,0,0-1.51-.62A13.43,13.43,0,0,0,7.33,3.5,13.27,13.27,0,0,0,4.78,3.73Z"/><path class="cls-2" d="M4,6.26v.35A1,1,0,0,0,5,7.77v.72h.54V7.76A1.06,1.06,0,0,0,6.61,6.57V6.26h.1a.17.17,0,0,0,.17-.17v-.2a.17.17,0,0,0-.17-.17h-.5v-1a.27.27,0,0,0-.27-.26h0a.27.27,0,0,0-.27.26v1H4.89v-1a.27.27,0,0,0-.27-.26h0a.27.27,0,0,0-.27.26v1H3.84a.17.17,0,0,0-.17.17v.2a.17.17,0,0,0,.17.17Zm1.42.3h.15a0,0,0,0,1,0,0s0,0,0,0l-.36.62a0,0,0,0,1-.06,0s0,0,0,0h0l.05-.38H5s0,0,0,0H5v0l.36-.62s0,0,.06,0l0,0h0l0,.38Z"/><rect class="cls-3" x="8.4" y="4.87" width="3.14" height="3.14" rx="1.57"/><circle class="cls-4" cx="10.41" cy="6.44" r="0.12"/><circle class="cls-4" cx="9.53" cy="6.44" r="0.12"/><circle class="cls-3" cx="9.97" cy="6.44" r="1.02"/><rect class="cls-4" x="9.93" y="5.48" width="0.08" height="0.16"/><rect class="cls-4" x="9.93" y="7.28" width="0.08" height="0.16"/></svg>