<svg id="Layer_1" data-name="Layer 1" xmlns="http://www.w3.org/2000/svg" viewBox="0 0 15 15"><defs><style>.cls-1{fill:none;stroke:#fff;stroke-miterlimit:10;stroke-width:0.5px;}</style></defs><title>icon</title><path class="cls-1" d="M5.87,14.59H9a.34.34,0,0,0,.34-.34h0A.34.34,0,0,0,9,13.91H6.21a.35.35,0,0,1-.34-.35h0a.34.34,0,0,1,.34-.34H9a.34.34,0,0,0,.34-.34h0A.34.34,0,0,0,9,12.54H6.21a.35.35,0,0,1-.34-.35v-.54"/><path class="cls-1" d="M5.87,11.65a1,1,0,0,0-.56-.88A5.43,5.43,0,1,1,10,10.68c-.45.23-.74,1.2-.74,1.2"/></svg>