<svg id="Layer_1" data-name="Layer 1" xmlns="http://www.w3.org/2000/svg" viewBox="0 0 15 15"><defs><style>.cls-1,.cls-3{fill:none;}.cls-1,.cls-2,.cls-3{stroke:#fff;stroke-miterlimit:10;}.cls-1{stroke-width:0.25px;}.cls-2{fill:#fff;stroke-width:0px;}.cls-3{stroke-width:0.1px;}</style></defs><title>icon</title><path class="cls-1" d="M13.69,7.19a6.33,6.33,0,0,1-3.21,5.51,6.35,6.35,0,0,1-6.31,0,6.35,6.35,0,1,1,9.52-5.49Z"/><path class="cls-1" d="M10.48,12.7l-.2,1.49a.55.55,0,0,1-.54.47H4.88a.54.54,0,0,1-.54-.49l-.17-1.49a6.35,6.35,0,0,0,6.31,0Z"/><path class="cls-2" d="M8.25,6.9,7.47,9.34l1,.62L6.53,12.33h0l.71-2.17-1-.63,2-2.63ZM9,6.53,8,6.22l-.25.32-2,2.64-.38.5.54.33.62.38-.75,2.3,1,.31L7,12.69,8.9,10.32l.41-.5L8.14,9.09Z"/><rect class="cls-3" x="2.65" y="3.45" width="9.38" height="1.97" rx="0.82"/><circle class="cls-3" cx="3.67" cy="4.44" r="0.57"/><circle class="cls-3" cx="5.19" cy="4.44" r="0.57"/><circle class="cls-3" cx="6.7" cy="4.44" r="0.57"/><circle class="cls-3" cx="8.22" cy="4.44" r="0.57"/><circle class="cls-3" cx="9.74" cy="4.44" r="0.57"/><circle class="cls-3" cx="11.16" cy="4.44" r="0.57"/></svg>