<svg id="Layer_1" data-name="Layer 1" xmlns="http://www.w3.org/2000/svg" viewBox="0 0 15 15"><defs><style>.cls-1,.cls-2{fill:#fff;}.cls-2{fill-rule:evenodd;}</style></defs><title>icon</title><path class="cls-1" d="M5.66,7.54A2.73,2.73,0,1,0,2.93,4.81,2.72,2.72,0,0,0,5.66,7.54ZM7.48,4.81A1.82,1.82,0,1,1,5.66,3,1.82,1.82,0,0,1,7.48,4.81Zm3.63,7.28a.89.89,0,0,1-.91.91H1.11a.89.89,0,0,1-.91-.91c0-.91.91-3.64,5.46-3.64S11.11,11.18,11.11,12.09Zm-.91,0a2.45,2.45,0,0,0-.75-1.52A5.14,5.14,0,0,0,5.66,9.36a5.11,5.11,0,0,0-3.79,1.21,2.42,2.42,0,0,0-.76,1.52Z"/><path class="cls-2" d="M12.48,4.81a.46.46,0,0,1,.45.46V6.63H14.3a.46.46,0,0,1,.45.46.45.45,0,0,1-.45.45H12.93V8.91a.45.45,0,0,1-.45.45A.46.46,0,0,1,12,8.91V7.54H10.66a.46.46,0,0,1-.46-.45.47.47,0,0,1,.46-.46H12V5.27A.47.47,0,0,1,12.48,4.81Z"/></svg>