<svg id="Layer_1" data-name="Layer 1" xmlns="http://www.w3.org/2000/svg" viewBox="0 0 15 15"><defs><style>.cls-1{fill:#fff;stroke-width:0.25px;}.cls-1,.cls-2{stroke:#fff;stroke-miterlimit:10;}.cls-2{fill:none;}</style></defs><title>icon</title><path class="cls-1" d="M11.49,1.32a1.3,1.3,0,0,1,1.57.94,1.75,1.75,0,0,1,0,.32v1h.43a1.3,1.3,0,0,1,1.3,1.3V12.7a1.3,1.3,0,0,1-1.3,1.3H2.3A1.3,1.3,0,0,1,1,12.7V4.93a1.29,1.29,0,0,1,1.24-1.3ZM5.81,3.63h6.42v-1a.42.42,0,0,0-.43-.43h-.1ZM2.3,4.49a.44.44,0,0,0-.44.44V12.7a.44.44,0,0,0,.44.44H13.53A.44.44,0,0,0,14,12.7V4.93a.44.44,0,0,0-.43-.44Z"/><path class="cls-2" d="M9.89,7.5H14a0,0,0,0,1,0,0V10a0,0,0,0,1,0,0H9.89a.39.39,0,0,1-.39-.39V7.89A.39.39,0,0,1,9.89,7.5Z"/></svg>