<svg id="Layer_1" data-name="Layer 1" xmlns="http://www.w3.org/2000/svg" viewBox="0 0 15 15"><defs><style>.cls-1{fill:#fff;}</style></defs><title>icon</title><path class="cls-1" d="M7.33,8.46A2.29,2.29,0,1,0,5,6.17,2.28,2.28,0,0,0,7.33,8.46Z"/><path class="cls-1" d="M1.83,2A1.83,1.83,0,0,0,0,3.83v7.34A1.83,1.83,0,0,0,1.83,13h11a1.83,1.83,0,0,0,1.84-1.83V3.83A1.83,1.83,0,0,0,12.83,2Zm9.9,10.08a4.29,4.29,0,0,0-4.4-2.75,4.28,4.28,0,0,0-4.39,2.75H1.83a.91.91,0,0,1-.91-.91V3.83a.91.91,0,0,1,.91-.91h11a.92.92,0,0,1,.92.91v7.34a.92.92,0,0,1-.92.91Z"/></svg>