<svg width="23" height="23" viewBox="0 0 23 23" fill="none" xmlns="http://www.w3.org/2000/svg">
<path d="M1 4.75C1 2.67893 2.8804 1 5.2 1H17.8C20.1196 1 22 2.67893 22 4.75V16C22 18.0711 20.1196 19.75 17.8 19.75H5.2C2.8804 19.75 1 18.0711 1 16V4.75Z" fill="white"/>
<path d="M11.92 11.1544C14.6533 11.1544 16.96 11.5774 16.96 13.2094C16.96 14.842 14.6382 15.25 11.92 15.25C9.1873 15.25 6.88 14.827 6.88 13.195C6.88 11.5624 9.20179 11.1544 11.92 11.1544ZM11.92 3.25C13.7716 3.25 15.2552 4.66241 15.2552 6.42463C15.2552 8.18685 13.7716 9.59986 11.92 9.59986C10.069 9.59986 8.58479 8.18685 8.58479 6.42463C8.58479 4.66241 10.069 3.25 11.92 3.25Z" fill="#4C9102"/>
<path d="M11.92 22L9.82 19.75H13.6L11.92 22Z" fill="white"/>
<path d="M9.82 19.75V19.25H8.66939L9.45447 20.0912L9.82 19.75ZM11.92 22L11.5545 22.3412L11.9627 22.7785L12.3206 22.2991L11.92 22ZM13.6 19.75L14.0006 20.0491L14.5973 19.25H13.6V19.75ZM5.2 1.5H17.8V0.5H5.2V1.5ZM21.5 4.75V16H22.5V4.75H21.5ZM17.8 19.25H5.2V20.25H17.8V19.25ZM1.5 16V4.75H0.5V16H1.5ZM5.2 19.25C3.10176 19.25 1.5 17.7432 1.5 16H0.5C0.5 18.399 2.65905 20.25 5.2 20.25V19.25ZM21.5 16C21.5 17.7432 19.8982 19.25 17.8 19.25V20.25C20.341 20.25 22.5 18.399 22.5 16H21.5ZM17.8 1.5C19.8982 1.5 21.5 3.00685 21.5 4.75H22.5C22.5 2.35102 20.341 0.5 17.8 0.5V1.5ZM5.2 0.5C2.65905 0.5 0.5 2.35101 0.5 4.75H1.5C1.5 3.00685 3.10176 1.5 5.2 1.5V0.5ZM11.92 11.6544C13.2753 11.6544 14.4675 11.7611 15.3052 12.0436C15.7216 12.1841 16.0134 12.356 16.1966 12.5464C16.368 12.7246 16.46 12.9336 16.46 13.2094H17.46C17.46 12.6691 17.2637 12.2133 16.9172 11.8531C16.5825 11.5052 16.1267 11.2654 15.6248 11.0961C14.6259 10.7591 13.298 10.6544 11.92 10.6544V11.6544ZM16.46 13.2094C16.46 13.4842 16.3679 13.6918 16.1961 13.8686C16.0122 14.0579 15.7193 14.2285 15.3015 14.3675C14.4613 14.6469 13.2686 14.75 11.92 14.75V15.75C13.2896 15.75 14.6169 15.6491 15.6171 15.3164C16.1196 15.1492 16.577 14.9117 16.9134 14.5653C17.2619 14.2065 17.46 13.7508 17.46 13.2094H16.46ZM11.92 14.75C10.565 14.75 9.37284 14.6433 8.53503 14.3607C8.11859 14.2203 7.82673 14.0483 7.6435 13.8579C7.47202 13.6797 7.38 13.4707 7.38 13.195H6.38C6.38 13.7353 6.57639 14.1912 6.92293 14.5513C7.25771 14.8992 7.71347 15.139 8.21544 15.3083C9.21445 15.6452 10.5423 15.75 11.92 15.75V14.75ZM7.38 13.195C7.38 12.9201 7.47214 12.7126 7.64392 12.5357C7.8278 12.3464 8.12075 12.1758 8.53848 12.0369C9.37871 11.7574 10.5714 11.6544 11.92 11.6544V10.6544C10.5504 10.6544 9.22308 10.7553 8.22287 11.088C7.72037 11.2551 7.26298 11.4927 6.92658 11.839C6.57808 12.1978 6.38 12.6535 6.38 13.195H7.38ZM11.92 3.75C13.519 3.75 14.7552 4.96149 14.7552 6.42463H15.7552C15.7552 4.36334 14.0243 2.75 11.92 2.75V3.75ZM14.7552 6.42463C14.7552 7.88789 13.5189 9.09986 11.92 9.09986V10.0999C14.0244 10.0999 15.7552 8.48581 15.7552 6.42463H14.7552ZM11.92 9.09986C10.3217 9.09986 9.08479 7.88783 9.08479 6.42463H8.08479C8.08479 8.48587 9.8163 10.0999 11.92 10.0999V9.09986ZM9.08479 6.42463C9.08479 4.96155 10.3216 3.75 11.92 3.75V2.75C9.81642 2.75 8.08479 4.36328 8.08479 6.42463H9.08479ZM9.45447 20.0912L11.5545 22.3412L12.2855 21.6588L10.1855 19.4088L9.45447 20.0912ZM12.3206 22.2991L14.0006 20.0491L13.1994 19.4509L11.5194 21.7009L12.3206 22.2991ZM13.6 19.25H9.82V20.25H13.6V19.25Z" fill="white"/>
</svg>
