<svg width="20" height="20" viewBox="0 0 20 20" fill="none" xmlns="http://www.w3.org/2000/svg">
<path d="M13.4513 1.69645C13.4132 1.93468 13.3941 2.1729 13.3941 2.41113C13.3941 4.55516 15.1284 6.28849 17.2629 6.28849C17.5011 6.28849 17.7298 6.26086 17.9681 6.22274V13.9117C17.9681 17.143 16.0623 19.0583 12.8224 19.0583H5.78139C2.54057 19.0583 0.634766 17.143 0.634766 13.9117V6.86119C0.634766 3.62132 2.54057 1.69645 5.78139 1.69645H13.4513ZM13.6428 7.4901C13.3846 7.46152 13.1283 7.57586 12.9749 7.7855L10.6698 10.7681L8.02929 8.69076C7.8673 8.56688 7.67672 8.51828 7.48614 8.5383C7.29651 8.56688 7.12499 8.67075 7.00969 8.82321L4.19005 12.4928L4.13192 12.5786C3.96993 12.8826 4.04616 13.2733 4.33203 13.4839C4.46544 13.5696 4.60837 13.6268 4.77036 13.6268C4.99048 13.6363 5.19917 13.521 5.33258 13.3409L7.72436 10.2621L10.4401 12.3023L10.5259 12.3585C10.8308 12.5205 11.212 12.4452 11.4312 12.1584L14.185 8.605L14.1469 8.62406C14.2994 8.41442 14.328 8.1476 14.2232 7.90938C14.1193 7.67115 13.8896 7.50916 13.6428 7.4901ZM17.3964 0C18.6638 0 19.6929 1.02914 19.6929 2.2965C19.6929 3.56386 18.6638 4.59299 17.3964 4.59299C16.1291 4.59299 15.0999 3.56386 15.0999 2.2965C15.0999 1.02914 16.1291 0 17.3964 0Z" fill="white"/>
</svg>
