<svg width="20" height="18" viewBox="0 0 20 18" fill="none" xmlns="http://www.w3.org/2000/svg">
<path d="M14.4027 0C17.674 0 19.6047 1.88238 19.6047 5.10462H15.5915V5.1375C13.729 5.1375 12.2191 6.60959 12.2191 8.4255C12.2191 10.2414 13.729 11.7135 15.5915 11.7135H19.6047V12.0094C19.6047 15.1906 17.674 17.0729 14.4027 17.0729H5.83674C2.56548 17.0729 0.634766 15.1906 0.634766 12.0094V5.06352C0.634766 1.88238 2.56548 0 5.83674 0H14.4027ZM18.8965 6.51846C19.2876 6.51846 19.6047 6.8276 19.6047 7.20894V9.60918C19.6002 9.98867 19.2857 10.2952 18.8965 10.2997H15.6674C14.7245 10.312 13.9 9.68261 13.6861 8.78718C13.579 8.23133 13.7293 7.65775 14.0968 7.22016C14.4644 6.78258 15.0115 6.52573 15.5915 6.51846H18.8965ZM16.0468 7.62816H15.7348C15.5433 7.62597 15.3589 7.69861 15.2226 7.82988C15.0864 7.96115 15.0098 8.14012 15.0098 8.32686C15.0097 8.71864 15.333 9.0375 15.7348 9.042H16.0468C16.4472 9.042 16.7719 8.7255 16.7719 8.33508C16.7719 7.94466 16.4472 7.62816 16.0468 7.62816ZM10.4823 3.69078H5.12853C4.73136 3.69075 4.40808 4.00227 4.40346 4.38948C4.40346 4.78125 4.72673 5.10012 5.12853 5.10462H10.4823C10.8827 5.10462 11.2073 4.78812 11.2073 4.3977C11.2073 4.00728 10.8827 3.69078 10.4823 3.69078Z" fill="white"/>
</svg>
