<svg width="16" height="15" viewBox="0 0 16 15" fill="none" xmlns="http://www.w3.org/2000/svg">
<path d="M7.13098 0C8.87103 0 10.2993 1.35495 10.3795 3.05288L10.3831 3.20356V6.65965L5.97843 6.65965C5.66277 6.65965 5.41317 6.90497 5.41317 7.21523C5.41317 7.49301 5.6229 7.72836 5.901 7.76566L5.97843 7.7708L10.3831 7.7708V11.2197C10.3831 12.9369 9.00449 14.3477 7.27022 14.4269L7.1163 14.4305H3.5412C1.79402 14.4305 0.365515 13.0755 0.285312 11.3776L0.281761 11.2269V3.21078C0.281761 1.48654 1.66728 0.0823243 3.39521 0.00349074L3.54854 0L7.13098 0ZM12.2159 4.72612C12.4127 4.52278 12.7227 4.50429 12.9401 4.66524L13.0023 4.7189L15.1092 6.81853C15.2174 6.92676 15.2751 7.06385 15.2751 7.21537C15.2751 7.33081 15.2382 7.44626 15.168 7.53954L15.1092 7.60499L13.0023 9.70462C12.8941 9.81285 12.7498 9.87057 12.6127 9.87057C12.4684 9.87057 12.3241 9.81285 12.2159 9.70462C12.0191 9.50785 12.0012 9.19777 12.1622 8.98039L12.2159 8.91816L13.3703 7.77094H10.3832V6.6598H13.3703L12.2159 5.51258C11.9994 5.29612 11.9994 4.94257 12.2159 4.72612Z" fill="white"/>
</svg>
