<svg width="19" height="19" viewBox="0 0 19 19" fill="none" xmlns="http://www.w3.org/2000/svg">
<path d="M5.40624 10.4743C6.69388 10.4743 7.72581 11.5163 7.72581 12.8131V15.9262C7.72581 17.2139 6.69388 18.2641 5.40624 18.2641H2.31957C1.04107 18.2641 0 17.2139 0 15.9262V12.8131C0 11.5163 1.04107 10.4743 2.31957 10.4743H5.40624ZM15.9449 10.4743C17.2234 10.4743 18.2644 11.5163 18.2644 12.8131V15.9262C18.2644 17.2139 17.2234 18.2641 15.9449 18.2641H12.8582C11.5705 18.2641 10.5386 17.2139 10.5386 15.9262V12.8131C10.5386 11.5163 11.5705 10.4743 12.8582 10.4743H15.9449ZM5.40624 0C6.69388 0 7.72581 1.0502 7.72581 2.33875V5.4519C7.72581 6.74867 6.69388 7.78974 5.40624 7.78974H2.31957C1.04107 7.78974 0 6.74867 0 5.4519V2.33875C0 1.0502 1.04107 0 2.31957 0H5.40624ZM15.9449 0C17.2234 0 18.2644 1.0502 18.2644 2.33875V5.4519C18.2644 6.74867 17.2234 7.78974 15.9449 7.78974H12.8582C11.5705 7.78974 10.5386 6.74867 10.5386 5.4519V2.33875C10.5386 1.0502 11.5705 0 12.8582 0H15.9449Z" fill="white"/>
</svg>
