<svg width="20" height="20" viewBox="0 0 20 20" fill="none" xmlns="http://www.w3.org/2000/svg">
<path d="M14.613 0C17.8538 0 19.6834 1.83816 19.6929 5.079V13.9792C19.6929 17.219 17.8538 19.0582 14.613 19.0582H5.71376C2.47292 19.0582 0.634766 17.219 0.634766 13.9792V5.079C0.634766 1.83816 2.47292 0 5.71376 0H14.613ZM10.6403 3.93551C10.3725 3.77351 10.0485 3.77351 9.79221 3.93551C9.53397 4.09655 9.39199 4.3929 9.41962 4.68831V14.3984C9.46822 14.8082 9.81031 15.1131 10.2105 15.1131C10.6212 15.1131 10.9633 14.8082 11.0014 14.3984V4.68831C11.0396 4.3929 10.8976 4.09655 10.6403 3.93551ZM6.19022 7.06104C5.93293 6.89905 5.60799 6.89905 5.35166 7.06104C5.09342 7.22304 4.95144 7.51749 4.98002 7.81384V14.3984C5.01719 14.8082 5.36023 15.1131 5.76998 15.1131C6.18069 15.1131 6.52278 14.8082 6.5609 14.3984V7.81384C6.59044 7.51749 6.44655 7.22304 6.19022 7.06104ZM15.0132 10.5201C14.7569 10.3581 14.4329 10.3581 14.1661 10.5201C13.9078 10.6821 13.7658 10.967 13.8039 11.2729V14.3984C13.8421 14.8082 14.1842 15.1131 14.5949 15.1131C14.9951 15.1131 15.3372 14.8082 15.3858 14.3984V11.2729C15.4134 10.967 15.2714 10.6821 15.0132 10.5201Z" fill="white"/>
</svg>
