<svg width="19" height="19" viewBox="0 0 19 19" fill="none" xmlns="http://www.w3.org/2000/svg">
<path d="M7.07274 0.000150626C7.92292 -0.00882541 8.71648 0.383845 9.23699 1.05047L10.0406 2.1189C10.2963 2.43852 10.6798 2.63029 11.0908 2.63029H13.8943C17.2639 2.63029 18.9077 4.42927 18.8986 8.11855V12.5658C18.8986 16.0907 16.7251 18.2641 13.1911 18.2641H6.33306C2.81728 18.2641 0.634766 16.0907 0.634766 12.5566V5.6986C0.634766 1.918 2.31503 0.000150626 5.6299 0.000150626H7.07274ZM13.9947 10.7668H5.53858C5.15505 10.7668 4.85369 11.0681 4.85369 11.4517C4.85369 11.8261 5.15505 12.1366 5.53858 12.1366H13.9947C14.3691 12.1366 14.6705 11.8261 14.6705 11.4517C14.6705 11.0681 14.3691 10.7668 13.9947 10.7668Z" fill="white"/>
</svg>
