<svg width="19" height="16" viewBox="0 0 19 16" fill="none" xmlns="http://www.w3.org/2000/svg">
<path d="M14.1343 8.67268C15.204 8.67268 16.1726 8.73346 16.7684 8.84664C16.7777 8.84664 17.3229 8.95878 17.5047 9.03109C17.767 9.14427 17.989 9.34863 18.1304 9.60434C18.2316 9.8087 18.2812 10.0246 18.2812 10.2499C18.2719 10.4846 18.1201 10.9259 18.0489 11.0998C17.6059 12.2463 16.152 14.4377 15.265 15.2782C15.1235 15.4207 14.9521 15.5747 14.9118 15.6156C14.6888 15.7896 14.4172 15.8818 14.125 15.8818C13.8617 15.8818 13.5994 15.8 13.3877 15.6355C13.2777 15.5569 13.1172 15.4005 13.0438 15.3272L13.0046 15.2876C12.0856 14.4282 10.7039 12.2872 10.2599 11.2015C10.2505 11.2015 10.0293 10.6599 9.98453 10.3331L9.977 10.2499V10.209C9.977 9.73743 10.2393 9.29728 10.6637 9.07196C10.896 8.94934 11.5713 8.83616 11.5817 8.82568C12.1868 8.73346 13.1151 8.67268 14.1343 8.67268ZM4.78656 8.72663C5.20941 8.72663 5.55747 9.04922 5.60504 9.46533L5.61058 9.56291L5.83672 13.6028C5.83672 14.1918 5.36688 14.6686 4.78656 14.6686C4.2425 14.6686 3.79465 14.2495 3.7408 13.7118L3.73537 13.6028L3.96254 9.56291C3.96254 9.10075 4.33118 8.72663 4.78656 8.72663ZM4.79203 0C5.05328 0 5.31556 0.0817414 5.52828 0.245224C5.61992 0.311377 5.74666 0.431156 5.82882 0.511688L5.91137 0.594197C6.82936 1.45458 8.21202 3.59453 8.65604 4.68022C8.66456 4.68022 8.88652 5.22266 8.93141 5.54958L8.93897 5.63282V5.67369C8.93897 6.14423 8.67566 6.58437 8.25229 6.80969C8.01995 6.93335 7.34463 7.04548 7.3343 7.05596C6.7292 7.14818 5.80089 7.20896 4.7817 7.20896C3.71193 7.20896 2.74334 7.14818 2.14753 7.035C2.1372 7.035 1.59302 6.92287 1.41128 6.85056C1.149 6.73843 0.926993 6.53302 0.785526 6.27732C0.684331 6.07297 0.634766 5.85709 0.634766 5.63282C0.644059 5.39703 0.795852 4.95688 0.866069 4.78292C1.31009 3.6354 2.76296 1.4441 3.651 0.604677C3.79247 0.461105 3.96388 0.307054 4.00415 0.266184C4.22616 0.0922211 4.49877 0 4.79203 0ZM14.1296 1.21319C14.6737 1.21319 15.1206 1.63229 15.1744 2.16997L15.1798 2.279L14.9536 6.319C14.9536 6.78116 14.585 7.15529 14.1296 7.15529C13.7068 7.15529 13.3587 6.8327 13.3111 6.41658L13.3056 6.319L13.0784 2.279C13.0784 1.69003 13.5493 1.21319 14.1296 1.21319Z" fill="white"/>
</svg>
