<svg width="24" height="17" viewBox="0 0 24 17" fill="none" xmlns="http://www.w3.org/2000/svg">
<path d="M11.7134 11.0324C15.305 11.0324 18.3717 11.6018 18.3717 13.8803C18.3717 16.1579 15.3247 16.7481 11.7134 16.7481C8.12178 16.7481 5.05504 16.1787 5.05504 13.9011C5.05504 11.6225 8.1021 11.0324 11.7134 11.0324ZM17.4559 9.66037C18.829 9.63492 20.3052 9.82346 20.8507 9.95733C22.0064 10.1845 22.7665 10.6483 23.0814 11.3224C23.3476 11.8757 23.3476 12.5177 23.0814 13.0702C22.5996 14.1156 21.0466 14.4512 20.443 14.538C20.3183 14.5568 20.2181 14.4484 20.2312 14.323C20.5395 11.4261 18.0867 10.0525 17.4522 9.73673C17.425 9.72259 17.4194 9.70091 17.4222 9.68771C17.4241 9.67828 17.4353 9.6632 17.4559 9.66037ZM5.81969 9.65842L6.07826 9.66075C6.09888 9.66358 6.10919 9.67866 6.11106 9.68714C6.11387 9.70128 6.10825 9.72202 6.08201 9.73711C5.44654 10.0529 2.99371 11.4265 3.30207 14.3225C3.3152 14.4488 3.21584 14.5563 3.09119 14.5384C2.48759 14.4516 0.934537 14.116 0.452782 13.0705C0.185661 12.5172 0.185661 11.8761 0.452782 11.3228C0.767704 10.6487 1.52689 10.1849 2.68254 9.95676C3.22897 9.82384 4.70422 9.63529 6.07826 9.66075L5.81969 9.65842ZM11.7134 0C14.1587 0 16.1195 1.97027 16.1195 4.43076C16.1195 6.8903 14.1587 8.86246 11.7134 8.86246C9.26806 8.86246 7.3073 6.8903 7.3073 4.43076C7.3073 1.97027 9.26806 0 11.7134 0ZM17.6949 0.738899C20.0568 0.738899 21.9117 2.97407 21.28 5.46378C20.8535 7.13993 19.3098 8.25327 17.59 8.20802C17.4175 8.20331 17.2479 8.18728 17.0838 8.159C16.9648 8.13826 16.9048 8.00346 16.9723 7.90353C17.6284 6.93253 18.0024 5.76451 18.0024 4.5107C18.0024 3.20221 17.5937 1.98234 16.8842 0.98212C16.8617 0.95101 16.8448 0.902932 16.8673 0.867109C16.8861 0.837884 16.9207 0.822801 16.9536 0.815259C17.1926 0.766238 17.4381 0.738899 17.6949 0.738899ZM5.83785 0.738805C6.09466 0.738805 6.34022 0.766144 6.58016 0.815165C6.61203 0.822707 6.64765 0.838733 6.66639 0.867014C6.68795 0.902837 6.67202 0.950916 6.64952 0.982025C5.94001 1.98225 5.53136 3.20212 5.53136 4.5106C5.53136 5.76441 5.90533 6.93244 6.56142 7.90343C6.6289 8.00336 6.56892 8.13817 6.44988 8.15891C6.28492 8.18813 6.11622 8.20322 5.94376 8.20793C4.22387 8.25318 2.6802 7.13984 2.25374 5.46369C1.62109 2.97398 3.47594 0.738805 5.83785 0.738805Z" fill="white"/>
</svg>
